<svg width="46" height="46" viewBox="0 0 46 46" fill="none" xmlns="http://www.w3.org/2000/svg">
<path d="M22.9998 0.598022C17.5459 0.598218 12.2699 2.53923 8.11621 6.07341C3.9623 9.60759 1.20156 14.5047 0.327927 19.8883C-0.545706 25.2717 0.524802 30.7904 3.34785 35.457C6.1707 40.1232 10.5621 43.633 15.7361 45.358C16.8846 45.559 17.3152 44.8699 17.3152 44.267C17.3152 43.7215 17.2865 41.9127 17.2865 39.989C11.5156 41.0513 10.0227 38.5824 9.56328 37.2904C9.05351 36.034 8.24551 34.9205 7.20898 34.0461C6.40508 33.6154 5.25664 32.5531 7.18027 32.5244C7.91484 32.6041 8.61914 32.8597 9.23398 33.2695C9.84863 33.6793 10.3557 34.2314 10.7117 34.8787C11.0258 35.4429 11.4482 35.9398 11.9547 36.3406C12.4611 36.7414 13.0418 37.0385 13.6633 37.2142C14.2848 37.3902 14.9348 37.442 15.5762 37.3664C16.2176 37.2908 16.8379 37.0894 17.4012 36.7736C17.5006 35.6058 18.0211 34.514 18.8656 33.7015C13.7551 33.1273 8.41484 31.1463 8.41484 22.3607C8.38262 20.0781 9.2248 17.8695 10.7691 16.1881C10.067 14.2041 10.149 12.0267 10.9988 10.1013C10.9988 10.1013 12.9223 9.49841 17.3152 12.4556C21.0734 11.422 25.041 11.422 28.7994 12.4556C33.1922 9.4697 35.1158 10.1013 35.1158 10.1013C35.9656 12.0267 36.0479 14.2041 35.3455 16.1881C36.8941 17.8666 37.7375 20.0773 37.6998 22.3607C37.6998 31.175 32.3309 33.1273 27.2203 33.7015C27.7684 34.257 28.1904 34.9242 28.458 35.6572C28.7256 36.3906 28.8322 37.1728 28.7707 37.9508C28.7707 41.023 28.742 43.4918 28.742 44.267C28.742 44.8699 29.1727 45.5877 30.3211 45.358C35.4859 43.6191 39.8646 40.1011 42.6756 35.4324C45.4867 30.7635 46.5469 25.2474 45.6672 19.8691C44.7875 14.491 42.0252 9.60037 37.873 6.07048C33.7211 2.54041 28.4496 0.600952 22.9998 0.598022Z" fill="white"/>
</svg>
