<svg width="42" height="32" viewBox="0 0 42 32" fill="none" xmlns="http://www.w3.org/2000/svg">
<path d="M39.75 0.375H2.25C1.8356 0.375 1.43817 0.53962 1.14515 0.832646C0.85212 1.12567 0.6875 1.5231 0.6875 1.9375V28.5C0.6875 29.3288 1.01674 30.1237 1.60279 30.7097C2.18884 31.2958 2.9837 31.625 3.8125 31.625H38.1875C39.0163 31.625 39.8112 31.2958 40.3972 30.7097C40.9833 30.1237 41.3125 29.3288 41.3125 28.5V1.9375C41.3125 1.5231 41.1479 1.12567 40.8549 0.832646C40.5618 0.53962 40.1644 0.375 39.75 0.375ZM35.7324 3.5L21 17.0059L6.26758 3.5H35.7324ZM38.1875 28.5H3.8125V5.49023L19.9434 20.2773C20.2316 20.542 20.6087 20.6888 21 20.6888C21.3913 20.6888 21.7684 20.542 22.0566 20.2773L38.1875 5.49023V28.5Z" fill="white"/>
</svg>
