<svg width="42" height="42" viewBox="0 0 42 42" fill="none" xmlns="http://www.w3.org/2000/svg">
<path d="M38.1875 0.6875H3.8125C2.9837 0.6875 2.18884 1.01674 1.60279 1.60279C1.01674 2.18884 0.6875 2.9837 0.6875 3.8125V38.1875C0.6875 39.0163 1.01674 39.8112 1.60279 40.3972C2.18884 40.9833 2.9837 41.3125 3.8125 41.3125H38.1875C39.0163 41.3125 39.8112 40.9833 40.3972 40.3972C40.9833 39.8112 41.3125 39.0163 41.3125 38.1875V3.8125C41.3125 2.9837 40.9833 2.18884 40.3972 1.60279C39.8112 1.01674 39.0163 0.6875 38.1875 0.6875ZM38.1875 38.1875H3.8125V3.8125H38.1875V38.1875ZM14.75 17.875V30.375C14.75 30.7894 14.5854 31.1868 14.2924 31.4799C13.9993 31.7729 13.6019 31.9375 13.1875 31.9375C12.7731 31.9375 12.3757 31.7729 12.0826 31.4799C11.7896 31.1868 11.625 30.7894 11.625 30.375V17.875C11.625 17.4606 11.7896 17.0632 12.0826 16.7701C12.3757 16.4771 12.7731 16.3125 13.1875 16.3125C13.6019 16.3125 13.9993 16.4771 14.2924 16.7701C14.5854 17.0632 14.75 17.4606 14.75 17.875ZM31.9375 23.3438V30.375C31.9375 30.7894 31.7729 31.1868 31.4799 31.4799C31.1868 31.7729 30.7894 31.9375 30.375 31.9375C29.9606 31.9375 29.5632 31.7729 29.2701 31.4799C28.9771 31.1868 28.8125 30.7894 28.8125 30.375V23.3438C28.8125 22.3077 28.4009 21.3142 27.6684 20.5816C26.9358 19.8491 25.9423 19.4375 24.9062 19.4375C23.8702 19.4375 22.8767 19.8491 22.1441 20.5816C21.4116 21.3142 21 22.3077 21 23.3438V30.375C21 30.7894 20.8354 31.1868 20.5424 31.4799C20.2493 31.7729 19.8519 31.9375 19.4375 31.9375C19.0231 31.9375 18.6257 31.7729 18.3326 31.4799C18.0396 31.1868 17.875 30.7894 17.875 30.375V17.875C17.8769 17.4923 18.0193 17.1236 18.275 16.8388C18.5308 16.5541 18.8821 16.3731 19.2624 16.3302C19.6428 16.2874 20.0256 16.3856 20.3383 16.6062C20.651 16.8269 20.8719 17.1547 20.959 17.5273C22.016 16.8103 23.2483 16.3947 24.5237 16.3252C25.7991 16.2557 27.0693 16.535 28.198 17.1329C29.3266 17.7309 30.2711 18.625 30.9299 19.7192C31.5887 20.8135 31.9371 22.0665 31.9375 23.3438ZM15.5312 12.4062C15.5312 12.8698 15.3938 13.3229 15.1363 13.7084C14.8787 14.0938 14.5127 14.3942 14.0844 14.5716C13.6561 14.749 13.1849 14.7954 12.7303 14.705C12.2756 14.6145 11.858 14.3913 11.5302 14.0635C11.2024 13.7358 10.9792 13.3181 10.8888 12.8635C10.7984 12.4089 10.8448 11.9376 11.0222 11.5093C11.1996 11.0811 11.5 10.715 11.8854 10.4575C12.2708 10.2 12.724 10.0625 13.1875 10.0625C13.8091 10.0625 14.4052 10.3094 14.8448 10.749C15.2843 11.1885 15.5312 11.7846 15.5312 12.4062Z" fill="white"/>
</svg>
