<svg width="45" height="40" viewBox="0 0 45 40" fill="none" xmlns="http://www.w3.org/2000/svg">
<path d="M43.7031 1.11524C43.461 0.906195 43.1665 0.767166 42.8512 0.713131C42.536 0.659097 42.2119 0.692105 41.9141 0.808601L2.33203 16.2988C1.77107 16.517 1.29614 16.9114 0.97876 17.4228C0.661379 17.9342 0.518719 18.5349 0.572257 19.1344C0.625796 19.7339 0.872635 20.2998 1.27561 20.7469C1.67859 21.1939 2.2159 21.498 2.80664 21.6133L13.0625 23.627V35.0625C13.0605 35.6854 13.2456 36.2945 13.5938 36.811C13.9421 37.3274 14.4374 37.7274 15.0156 37.959C15.593 38.1947 16.2279 38.2513 16.8378 38.1214C17.4477 37.9915 18.0044 37.681 18.4355 37.2305L23.3809 32.1016L31.2266 38.9688C31.7926 39.4708 32.5227 39.7487 33.2793 39.75C33.6109 39.7497 33.9404 39.6977 34.2559 39.5957C34.7714 39.4321 35.2351 39.1363 35.6007 38.7378C35.9663 38.3393 36.2212 37.8519 36.3398 37.3242L44.2676 2.83594C44.3385 2.52491 44.3234 2.20044 44.224 1.89731C44.1245 1.59419 43.9445 1.32384 43.7031 1.11524ZM31.7617 8.14649L14.2637 20.6777L4.57617 18.7774L31.7617 8.14649ZM16.1875 35.0625V25.7891L21.0293 30.0352L16.1875 35.0625ZM33.2832 36.625L17.1348 22.4649L40.377 5.80665L33.2832 36.625Z" fill="white"/>
</svg>
