<svg width="36" height="38" viewBox="0 0 36 38" fill="none" xmlns="http://www.w3.org/2000/svg">
<path d="M34.9434 35.3496L22.7168 16.1348L34.7813 2.86328C35.0541 2.55571 35.1947 2.15299 35.1726 1.74243C35.1506 1.33186 34.9675 0.946553 34.6633 0.670031C34.359 0.393509 33.958 0.248063 33.5472 0.265226C33.1364 0.28239 32.7489 0.460779 32.4688 0.761719L20.9766 13.4023L13.0684 0.974609C12.9273 0.752646 12.7326 0.569864 12.5021 0.443199C12.2717 0.316533 12.013 0.250082 11.75 0.25H2.375C2.09485 0.249864 1.81981 0.325053 1.57869 0.467695C1.33757 0.610337 1.13923 0.815183 1.00445 1.06079C0.869667 1.30639 0.803398 1.58371 0.81258 1.86371C0.821763 2.14372 0.906059 2.4161 1.05664 2.65234L13.2832 21.8652L1.21875 35.1465C1.07787 35.2978 0.968419 35.4756 0.896754 35.6696C0.825089 35.8635 0.792632 36.0698 0.801263 36.2764C0.809894 36.4829 0.859443 36.6858 0.947037 36.8731C1.03463 37.0604 1.15853 37.2284 1.31154 37.3675C1.46456 37.5065 1.64366 37.6138 1.83846 37.6832C2.03325 37.7525 2.23987 37.7825 2.44634 37.7714C2.65281 37.7603 2.85502 37.7083 3.04125 37.6185C3.22748 37.5286 3.39403 37.4027 3.53125 37.248L15.0234 24.6074L22.9316 37.0352C23.0738 37.2553 23.2691 37.4362 23.4995 37.5611C23.7298 37.686 23.9879 37.751 24.25 37.75H33.625C33.9049 37.7499 34.1795 37.6747 34.4204 37.5321C34.6612 37.3896 34.8593 37.185 34.9941 36.9397C35.1288 36.6944 35.1951 36.4174 35.1862 36.1377C35.1773 35.858 35.0934 35.5858 34.9434 35.3496ZM25.1074 34.625L5.2207 3.375H10.8848L30.7793 34.625H25.1074Z" fill="white"/>
</svg>
